<svg width="32" height="32" viewBox="0 0 32 32" fill="none" xmlns="http://www.w3.org/2000/svg">
  <!-- Coffee cup -->
  <path d="M6 12h16v12c0 2.2-1.8 4-4 4h-8c-2.2 0-4-1.8-4-4V12z" fill="#8B4513"/>
  <!-- Coffee -->
  <path d="M7 13h14v10c0 1.7-1.3 3-3 3h-8c-1.7 0-3-1.3-3-3V13z" fill="#D2691E"/>
  <!-- Foam -->
  <ellipse cx="14" cy="13" rx="7" ry="1.5" fill="#F5DEB3"/>
  <!-- Handle -->
  <path d="M22 16v4c2 0 4-1 4-2s-2-2-4-2z" stroke="#8B4513" stroke-width="2" fill="none"/>
  <!-- Steam -->
  <path d="M10 8c0-2 1-3 1-3s1 1 1 3" stroke="#E6E6FA" stroke-width="1.5" fill="none" stroke-linecap="round"/>
  <path d="M14 6c0-2 1-3 1-3s1 1 1 3" stroke="#E6E6FA" stroke-width="1.5" fill="none" stroke-linecap="round"/>
  <path d="M18 8c0-2 1-3 1-3s1 1 1 3" stroke="#E6E6FA" stroke-width="1.5" fill="none" stroke-linecap="round"/>
</svg>